<svg width="608" height="431" viewBox="0 0 608 431" fill="none" xmlns="http://www.w3.org/2000/svg">
<path d="M1 203L2 429.5H227L1 203Z" fill="#B91617"/>
<path d="M259.5 430L4 174L135.5 42.5L523.5 430H259.5Z" fill="#B91617"/>
<path d="M552.5 430L256.5 134L390.5 1L607.5 222V430H552.5Z" fill="#B91617"/>
<path d="M1 203L2 429.5H227L1 203Z" stroke="#B91617"/>
<path d="M259.5 430L4 174L135.5 42.5L523.5 430H259.5Z" stroke="#B91617"/>
<path d="M552.5 430L256.5 134L390.5 1L607.5 222V430H552.5Z" stroke="#B91617"/>
<path d="M1 202L2.00221 429.497L228 430L1 202Z" fill="#004672" stroke="#004672"/>
</svg>
